<svg width="164" height="39" viewBox="0 0 164 39" fill="none" xmlns="http://www.w3.org/2000/svg">
<g clip-path="url(#clip0_12:4)">
<path fill-rule="evenodd" clip-rule="evenodd" d="M161.364 27.3782C159.716 30.2633 157.007 32.0296 154.299 32.0296C153.004 32.0296 151.119 31.6175 149.177 29.7334C148.647 29.2035 146.645 26.8483 144.525 23.6689L143.76 22.5503C143.76 22.5503 142.877 21.0783 142.7 20.725V20.6662C142.641 20.5484 142.582 20.4307 142.464 20.3129C142.464 20.254 142.406 20.254 142.406 20.1951C142.347 20.1363 142.347 20.0774 142.288 19.9596C142.229 19.9008 142.229 19.783 142.17 19.7241C143.053 19.6064 144.113 19.4297 144.349 19.4297C144.996 19.312 145.644 19.0765 146.174 18.5466C146.174 18.6054 146.233 18.6054 146.233 18.6643C146.291 18.7821 146.409 18.8998 146.468 19.0765C146.939 19.8419 147.41 20.6073 147.94 21.4316L149.235 23.2568C150.648 25.1998 151.885 26.6128 152.179 26.9072C152.886 27.6726 153.651 28.0259 154.358 28.0259C155.594 28.0259 157.007 26.9661 157.89 25.3764C158.715 23.9633 158.95 22.3147 158.538 21.2549C158.185 20.4895 157.478 19.9596 156.36 19.6064C156.065 19.5475 154.417 19.1942 152.062 18.8998C152.65 17.6634 153.592 15.6615 153.946 15.0728C155.712 15.3083 157.007 15.6027 157.419 15.7204C160.422 16.4858 161.776 18.311 162.365 19.7241C163.189 21.9026 162.895 24.7876 161.364 27.3782V27.3782ZM141.699 21.3138C141.817 21.4905 142.111 22.0792 142.406 22.4914L142.347 22.6091C140.875 24.611 139.697 25.9652 139.579 26.0829C139.226 26.4362 138.696 26.8483 138.166 26.8483C137.46 26.8483 136.341 26.1418 135.576 24.7876C134.81 23.4923 134.751 22.2559 134.987 21.6671C135.105 21.3727 135.399 20.9606 136.459 20.6662C136.871 20.5484 138.637 20.1951 140.875 19.9596H140.992L141.051 20.0774C141.228 20.3718 141.346 20.6662 141.522 20.9017C141.581 21.0194 141.64 21.1372 141.699 21.3138V21.3138ZM143.23 29.7334C141.346 31.6175 139.403 32.0296 138.166 32.0296C135.458 32.0296 132.75 30.2633 131.101 27.3782C129.57 24.7876 129.276 21.9026 130.218 19.6652C130.807 18.311 132.102 16.4858 135.105 15.6615C135.517 15.5438 136.577 15.3083 137.931 15.1316H138.873C138.873 15.1316 141.346 14.7784 144.878 14.6017H147.175C146.998 15.0139 146.233 16.8391 145.349 17.8989C144.996 18.3699 144.584 18.5466 144.231 18.6054C142.994 18.7821 140.404 19.0765 140.345 19.0765C139.874 19.1353 139.462 19.1942 139.108 19.2531C137.578 19.4886 136.518 19.7241 136.106 19.783C134.928 20.0774 134.222 20.6073 133.927 21.4316C133.456 22.4914 133.75 24.14 134.575 25.553C135.458 27.1427 136.93 28.2025 138.107 28.2025C138.814 28.2025 139.579 27.8493 140.286 27.0839C140.463 26.9072 141.522 25.6708 142.994 23.7278C143.583 24.5521 144.761 26.2596 145.467 27.2016C144.349 28.4969 143.524 29.4979 143.23 29.7334V29.7334ZM147.705 13.3653H144.761L144.702 13.2475C143.701 10.9513 143.112 9.30272 143.112 9.18496C142.818 8.12516 143.053 7.71301 143.23 7.41862C143.642 6.88872 144.761 6.35882 146.233 6.35882H146.409C147.822 6.4177 148.882 6.9476 149.235 7.41862C149.53 7.83077 149.589 8.41955 149.353 9.12608C148.882 10.6569 148.234 12.1877 147.705 13.3653ZM151.532 19.9596C154.063 20.254 155.83 20.6073 156.006 20.6662C157.066 20.9606 157.361 21.3727 157.478 21.6671C157.714 22.2559 157.655 23.4923 156.89 24.7876C156.124 26.1418 155.005 26.8483 154.299 26.8483C153.769 26.8483 153.239 26.4362 152.886 26.0829C152.709 25.9063 151.532 24.5521 150.06 22.5503L150.001 22.4914L150.177 22.2559L150.531 21.726C150.766 21.3727 150.943 20.9606 151.178 20.5484L151.473 20.0185L151.532 19.9596V19.9596ZM138.107 10.5392C137.283 7.53638 138.225 5.47565 139.108 4.29809C140.58 2.35512 143.289 1.17756 146.233 1.17756H146.409C149.294 1.23644 151.885 2.35512 153.357 4.29809C154.24 5.47565 155.182 7.53638 154.358 10.5392C154.181 11.1279 153.062 14.1896 151.414 17.5456L150.825 18.7821L150.177 20.0185C149.942 20.4307 149.765 20.7839 149.53 21.1961C149.471 21.3138 149.353 21.4905 149.294 21.6082C148.411 20.3129 147.057 18.1344 146.821 17.7223C147.175 17.1335 147.469 16.4858 147.822 15.7793C147.822 15.7793 149.471 12.7176 150.472 9.47935C150.825 8.36067 150.707 7.4775 150.177 6.77097C149.53 5.8878 148.058 5.29902 146.468 5.24014H146.291C144.643 5.24014 143.112 5.82892 142.406 6.77097C141.876 7.4775 141.758 8.36067 142.111 9.47935C142.17 9.65599 142.7 11.2457 143.642 13.4242C142.406 13.4831 141.051 13.6008 139.403 13.8363C139.403 13.7774 139.344 13.7186 139.344 13.6597V13.6008C139.344 13.5419 139.285 13.4831 139.285 13.4242C138.578 11.9522 138.225 10.8924 138.107 10.5392V10.5392ZM163.307 19.2531C162.66 17.6634 161.129 15.5438 157.655 14.6017C157.184 14.484 155.947 14.2485 154.299 13.9541C154.947 12.3644 155.359 11.1868 155.476 10.7747C156.418 7.30087 155.359 4.94575 154.299 3.53268C152.65 1.35419 149.765 0.058878 146.527 0H146.291C142.994 0 139.992 1.35419 138.284 3.53268C137.224 4.94575 136.164 7.30087 137.107 10.7747C137.224 11.1868 137.636 12.3644 138.284 13.9541C136.753 14.1896 135.517 14.4251 134.928 14.6017C131.454 15.4849 129.923 17.6045 129.276 19.2531C128.216 21.8437 128.569 25.082 130.218 27.967C132.102 31.2053 135.164 33.2072 138.284 33.2072C139.756 33.2072 141.993 32.7361 144.172 30.5577C144.466 30.2633 145.349 29.2623 146.35 27.967C147.41 29.3212 148.234 30.2633 148.529 30.5577C150.707 32.7361 152.945 33.2072 154.417 33.2072C157.537 33.2072 160.599 31.2053 162.483 27.967C164.014 25.082 164.367 21.7848 163.307 19.2531V19.2531Z" fill="white"/>
</g>
<g filter="url(#filter0_d_12:4)">
<path d="M11.3555 27.6712L8.71865 30.3081C7.57473 29.139 6.50231 27.2927 5.50139 24.7694C4.50046 22.2461 4 19.6176 4 16.884C4 14.1419 4.50467 11.442 5.514 8.78404C6.52334 6.11771 7.59156 4.20839 8.71865 3.05606L11.3555 5.69295C10.6742 6.5593 9.99293 8.07751 9.31163 10.2476C8.63874 12.4177 8.3023 14.6045 8.3023 16.8083C8.3023 19.0036 8.63033 21.1526 9.2864 23.2554C9.94247 25.3498 10.6322 26.8217 11.3555 27.6712ZM24.4138 10.235L23.3162 14.1083C23.0134 13.9905 22.6727 13.9317 22.2942 13.9317C21.2849 13.9317 20.04 14.3648 18.5597 15.2312V27.4568H14.6233V10.1719H17.563L18.4714 11.6859L22.6475 9.9574C22.8494 9.94058 23.1227 9.93216 23.4676 9.93216C23.8124 9.93216 24.1278 10.0331 24.4138 10.235ZM40.0081 19.7353H29.9147C29.9147 21.3166 30.1628 22.469 30.6591 23.1923C31.1554 23.9157 32.1521 24.2774 33.6493 24.2774C34.6165 24.2774 35.3315 23.9703 35.7941 23.3563C36.2567 22.7423 36.488 22.1535 36.488 21.59H40.0333C40.0333 23.7517 39.4529 25.3372 38.2922 26.3465C37.1315 27.3558 35.5964 27.8605 33.6871 27.8605C31.7778 27.8605 30.3016 27.5871 29.2586 27.0404C27.097 25.9301 26.0162 22.982 26.0162 18.1961C26.0162 15.3531 26.6302 13.2672 27.8582 11.9382C29.0946 10.6177 30.9745 9.9574 33.4979 9.9574C37.8716 9.9574 40.0585 12.3924 40.0585 17.2625C40.0585 17.784 40.0417 18.6083 40.0081 19.7353ZM30.0156 17.048H36.488C36.488 15.7106 36.2357 14.7391 35.731 14.1335C35.2263 13.5279 34.4567 13.2251 33.4222 13.2251C32.3792 13.2251 31.5507 13.5363 30.9367 14.1588C30.3227 14.7728 30.0156 15.7358 30.0156 17.048ZM45.2062 30.3081L42.5819 27.6712C43.3052 26.8217 43.995 25.3498 44.651 23.2554C45.3071 21.1526 45.6351 19.0036 45.6351 16.8083C45.6351 14.6045 45.2987 12.4177 44.6258 10.2476C43.9445 8.07751 43.2632 6.5593 42.5819 5.69295L45.2062 3.05606C46.3417 4.20839 47.4141 6.11771 48.4234 8.78404C49.4328 11.442 49.9374 14.1419 49.9374 16.884C49.9374 19.6176 49.437 22.2461 48.436 24.7694C47.4351 27.2927 46.3585 29.139 45.2062 30.3081ZM76.0918 15.862V27.4568H72.1554V16.7073C72.1554 15.6391 72.0293 14.8947 71.7769 14.4742C71.5246 14.0452 71.0872 13.8307 70.4648 13.8307L66.9195 15.3195V27.4568H62.9831V16.7073C62.9831 14.7896 62.3186 13.8307 60.9897 13.8307L57.7472 15.3195V27.4568H53.8107V10.1719H56.7504L57.6588 12.2284L62.2009 9.99525C63.7737 9.99525 64.9639 10.7607 65.7714 12.2915L71.3984 9.99525C72.9797 9.99525 74.1573 10.5251 74.9311 11.585C75.7049 12.6448 76.0918 14.0704 76.0918 15.862ZM82.3371 3.57335C83.2876 3.57335 83.9016 3.72054 84.1792 4.01493C84.4651 4.30091 84.6081 4.91492 84.6081 5.85697C84.6081 6.79902 84.4609 7.41303 84.1665 7.69901C83.8722 7.9934 83.2581 8.14059 82.3245 8.14059C81.3825 8.14059 80.7642 7.98919 80.4698 7.68639C80.1755 7.38359 80.0283 6.76958 80.0283 5.84435C80.0283 4.91072 80.1755 4.30091 80.4698 4.01493C80.7642 3.72054 81.3867 3.57335 82.3371 3.57335ZM84.2675 10.8027V27.4568H80.3311V10.8027H84.2675ZM102.082 15.862V27.4568H98.1459V16.4045C98.1459 15.4204 97.944 14.7475 97.5402 14.3859C97.1365 14.0158 96.5688 13.8307 95.837 13.8307L92.2917 15.3195V27.4568H88.3553V10.1719H91.295L92.2034 12.2284L97.0482 9.99525C98.4024 9.99525 99.58 10.4915 100.581 11.484C101.582 12.4849 102.082 13.9443 102.082 15.862ZM118.585 4.69623V27.4568H115.948L114.737 25.375L110.523 27.646C108.185 27.646 106.612 26.7965 105.804 25.0974C105.4 24.2731 105.123 23.3816 104.971 22.4227C104.82 21.4638 104.744 20.4629 104.744 19.4199C104.744 18.3854 104.753 17.6199 104.77 17.1237C104.795 16.6274 104.845 16.0513 104.921 15.3952C105.005 14.7391 105.123 14.1882 105.274 13.7424C105.426 13.2966 105.64 12.8382 105.918 12.3672C106.204 11.8962 106.549 11.5177 106.952 11.2317C107.861 10.6093 109.042 10.298 110.498 10.298H114.648V4.69623H118.585ZM111.646 23.4951L114.648 21.9559V13.8307H111.646C110.535 13.8307 109.762 14.2555 109.324 15.105C108.895 15.9545 108.681 17.2204 108.681 18.9026C108.681 20.5933 108.887 21.7792 109.299 22.4606C109.711 23.1503 110.493 23.4951 111.646 23.4951Z" fill="#F4F4F4"/>
</g>
<defs>
<filter id="filter0_d_12:4" x="0" y="3.05606" width="122.585" height="35.2521" filterUnits="userSpaceOnUse" color-interpolation-filters="sRGB">
<feFlood flood-opacity="0" result="BackgroundImageFix"/>
<feColorMatrix in="SourceAlpha" type="matrix" values="0 0 0 0 0 0 0 0 0 0 0 0 0 0 0 0 0 0 127 0" result="hardAlpha"/>
<feOffset dy="4"/>
<feGaussianBlur stdDeviation="2"/>
<feComposite in2="hardAlpha" operator="out"/>
<feColorMatrix type="matrix" values="0 0 0 0 0 0 0 0 0 0 0 0 0 0 0 0 0 0 0.1 0"/>
<feBlend mode="normal" in2="BackgroundImageFix" result="effect1_dropShadow_12:4"/>
<feBlend mode="normal" in="SourceGraphic" in2="effect1_dropShadow_12:4" result="shape"/>
</filter>
<clipPath id="clip0_12:4">
<rect width="35.3268" height="33.3642" fill="white" transform="translate(128.673)"/>
</clipPath>
</defs>
</svg>
