<svg width="248" height="330" viewBox="0 0 248 330" fill="none" xmlns="http://www.w3.org/2000/svg">
<path fill-rule="evenodd" clip-rule="evenodd" d="M171.568 36.2322C176.016 30.8617 179.027 24.2801 178.524 16.9051C177.074 -4.34409 148.318 0.330465 142.724 11.0552C137.131 21.78 137.795 48.9843 145.025 50.9012C147.908 51.6656 154.049 49.793 160.3 45.9175L156.377 74.4699H179.544L171.568 36.2322Z" fill="#B28B67"/>
<path fill-rule="evenodd" clip-rule="evenodd" d="M164.36 24.6913C165.117 24.1557 166.023 23.8304 166.995 23.8304C169.66 23.8304 171.821 26.2754 171.821 28.795C171.821 31.4162 170.618 33.443 168.9 34.3028C169.817 36.1486 170.74 37.4881 171.821 37.7314C175.993 37.2973 181.474 26.631 181.474 17.8728C181.474 8.28652 174.059 0 160.238 0C147.816 0 143.105 5.26871 142.863 9.92932C148.186 11.4342 157.488 12.0137 170.856 11.9152V12.9081L159.273 13.901L157.342 19.8586C160.413 19.6228 162.608 21.7899 164.36 24.6913Z" fill="#191847"/>
<path d="M189.197 329.654C148.147 329.654 114.869 296.979 114.869 256.673C114.869 216.367 148.147 183.693 189.197 183.693C230.246 183.693 263.524 216.367 263.524 256.673C263.524 296.979 230.246 329.654 189.197 329.654Z" fill="#C5CFD6"/>
<path fill-rule="evenodd" clip-rule="evenodd" d="M48.7382 318.394C61.1062 290.236 70.0506 265.717 73.6409 252.781C79.7883 230.631 84.4649 211.141 85.6468 203.862C88.4654 186.505 63.9646 185.494 60.7261 194.12C55.8245 207.176 47.2674 250.073 36.9854 314.866L48.7382 318.394ZM192.2 230.026C180.853 225.413 141.114 210.973 121.948 206.889C116.44 205.715 111.102 204.624 106.083 203.639C91.1657 200.71 83.4371 228.392 97.8044 230.519C133.585 235.816 184.309 241.286 188.65 241.9C194.734 242.76 199.332 232.926 192.2 230.026Z" fill="#B28B67"/>
<path fill-rule="evenodd" clip-rule="evenodd" d="M96.9274 196.021L158.307 163.88V156.883H151.008C91.6253 172.448 61.281 182.423 59.9747 186.808C59.9606 186.855 59.9477 186.903 59.936 186.95C59.9061 186.99 59.8767 187.031 59.8479 187.072C48.0796 203.72 41.0316 284.999 38.7183 291.084L61.269 294.545C69.8953 261.641 97.4941 238.719 96.761 199.31C96.959 198.154 97.009 197.058 96.9274 196.021Z" fill="#1F28CF"/>
<path fill-rule="evenodd" clip-rule="evenodd" d="M153.208 215.109C158.824 213.953 163.995 212.921 168.421 212.123C197.006 206.965 205.342 191.225 200.414 156.883H147.745C139.142 159.426 94.4303 178.713 71.2319 188.971C55.878 195.761 60.718 220.237 69.413 226.607C69.4602 226.997 69.6166 227.263 69.8953 227.382C116.668 247.322 153.669 236.86 166.03 240.203L171.747 221.651L153.208 215.109Z" fill="#2B44FF"/>
<path fill-rule="evenodd" clip-rule="evenodd" d="M186.487 227.64C189.89 228.289 192.331 229.012 193.811 229.81C195.611 230.78 198.125 232.453 201.351 234.828C200.563 236.619 193.477 252.709 180.094 283.099C174.705 281.746 172.413 279.615 173.218 276.704C174.022 273.794 174.662 271.361 175.139 269.406L173.353 240.683C173.319 240.131 173.768 239.746 174.356 239.825C174.366 239.827 174.376 239.828 174.386 239.83L179.102 240.587C181.565 238.819 183.141 237.153 183.83 235.588C184.389 234.317 184.564 232.24 184.353 229.355L184.353 229.355C184.271 228.248 185.159 227.469 186.335 227.616C186.385 227.622 186.436 227.63 186.487 227.64Z" fill="#E4E4E4"/>
<path fill-rule="evenodd" clip-rule="evenodd" d="M54.3668 313.173C55.4468 316.138 55.9867 318.357 55.9867 319.829C55.9867 321.62 55.6967 324.233 55.1168 327.668C53.0974 327.668 34.9494 327.668 0.672737 327.668C-0.742069 322.857 0.0746384 320.259 3.12286 319.876C6.17109 319.492 8.7033 319.146 10.7195 318.836L36.0246 307.232C36.5115 307.009 37.0822 307.234 37.2993 307.735C37.303 307.743 37.3066 307.752 37.31 307.761L38.9366 311.819C41.7585 313.174 44.0515 313.851 45.8158 313.851C47.2492 313.851 49.2287 313.255 51.7544 312.064L51.7544 312.064C52.7237 311.607 53.8696 312.045 54.3139 313.042C54.3331 313.085 54.3507 313.129 54.3668 313.173Z" fill="#E4E4E4"/>
<path fill-rule="evenodd" clip-rule="evenodd" d="M100.497 137.155L69.7056 160.413C61.3544 162.731 54.3773 165.615 48.7742 169.065C47.4507 170.306 45.851 172.818 51.3401 172.384C56.8292 171.95 62.6218 171.747 63.3792 173.673C64.1366 175.599 60.8149 177.902 62.3459 180.5C63.3666 182.233 68.1887 177.889 76.8121 167.469L107.303 154.463L100.497 137.155ZM239.836 127.468L222.836 130.634C242.567 170.908 253.135 192.203 254.54 194.518C257.7 199.726 254.51 209.111 253.306 214.061C260.3 215.87 257.715 204.943 266.565 207.374C274.642 209.592 281.43 215.035 289.116 207.997C290.061 207.132 290.789 204.387 287.642 202.916C279.802 199.251 268.243 192.445 266.393 189.85C263.872 186.311 255.02 165.517 239.836 127.468Z" fill="#B28B67"/>
<path fill-rule="evenodd" clip-rule="evenodd" d="M93.3237 139.684C89.362 139.391 85.0527 140.066 80.4326 141.668C78.1592 142.456 76.9371 144.99 77.7032 147.329C78.148 148.687 79.1657 149.68 80.3861 150.12C79.5021 150.783 78.6102 151.443 77.7104 152.099L85.4782 168.411C118.166 151.646 148.889 139.007 162.889 111.329C167.587 102.04 165.997 70.4866 166.445 59.0076L156.122 54.6525C141.731 85.2515 122.255 114.608 93.3237 139.684Z" fill="#69A1AC"/>
<path fill-rule="evenodd" clip-rule="evenodd" d="M202.711 165.73C172.364 169.159 148.477 169.159 131.051 165.73C128.892 165.305 128.987 155.732 129.988 153.117C145.58 112.402 155.836 82.5962 155.836 54.3161C158.697 55.8532 163.703 56.0836 170.856 55.0072C190.079 84.1507 198.915 117.59 202.711 165.73Z" fill="#191847"/>
<path fill-rule="evenodd" clip-rule="evenodd" d="M208.349 170.544C209.38 169.547 209.917 168.051 209.653 166.511L209.15 163.577C208.809 161.589 207.24 160.142 205.387 159.915C205.063 158.425 204.783 156.946 204.553 155.477C202.604 143.069 205.933 130.903 205.777 118.955C221.299 132.578 235.223 156.1 247.55 189.522L265.781 184.004C265.086 181.346 264.365 178.72 263.62 176.127C265.724 174.897 268.183 169.261 266.413 168.318C264.586 167.344 262.649 166.659 260.611 166.255C243.894 114.464 216.558 76.5879 178.602 52.6254H175.244L167.624 52.6254C170.856 96.5933 126.212 192.584 141.713 274.564C170.366 281.146 211.271 260.668 251.088 277.028C249.607 244.014 219.928 205.23 208.349 170.544V170.544Z" fill="#89C5CC"/>
<path fill-rule="evenodd" clip-rule="evenodd" d="M174.615 53.6177L179.595 69.371L169.566 81.1805L178.63 90.4609L156.703 129.08L183.517 90.5381L174.615 81.1805L183.517 70.7442L174.615 53.6177Z" fill="black" fill-opacity="0.1"/>
<path fill-rule="evenodd" clip-rule="evenodd" d="M163.134 143.975C165.266 143.975 166.995 142.197 166.995 140.004C166.995 137.81 165.266 136.032 163.134 136.032C161.001 136.032 159.273 137.81 159.273 140.004C159.273 142.197 161.001 143.975 163.134 143.975ZM158.307 166.813C160.44 166.813 162.168 165.035 162.168 162.841C162.168 160.648 160.44 158.869 158.307 158.869C156.175 158.869 154.446 160.648 154.446 162.841C154.446 165.035 156.175 166.813 158.307 166.813ZM157.342 189.65C159.474 189.65 161.203 187.872 161.203 185.679C161.203 183.485 159.474 181.707 157.342 181.707C155.21 181.707 153.481 183.485 153.481 185.679C153.481 187.872 155.21 189.65 157.342 189.65Z" fill="black" fill-opacity="0.4"/>
</svg>
