<svg width="331" height="449" viewBox="0 0 331 449" fill="none" xmlns="http://www.w3.org/2000/svg">
<path fill-rule="evenodd" clip-rule="evenodd" d="M177.462 61.0235C173.476 54.059 171.401 46.4408 173.539 39.3609C179.7 18.9618 211.823 34.3735 215.997 47.0458C220.17 59.718 213.654 86.2815 204.925 85.4546C201.443 85.1248 194.767 80.9716 188.389 74.8031L186.871 104.419L160.195 95.7149L177.462 61.0235Z" fill="#D4A181"/>
<path fill-rule="evenodd" clip-rule="evenodd" d="M189.11 62.4319C184.763 66.9463 179.544 69.746 175.276 68.4302C167.169 65.931 163.704 54.1609 166.177 43.4166C166.264 43.0391 166.358 42.6666 166.46 42.2994C156.636 45.0813 147.565 53.7385 136.219 50.2403C120.781 45.4812 121.257 14.8828 142.825 21.5321C157.493 26.0541 164.255 30.2502 169.802 35.0829C171.762 32.2733 174.248 30.1697 176.966 29.0031C177.647 28.6018 178.616 28.3155 179.821 28.1445C180.563 28.014 181.315 27.9529 182.07 27.9654C186.112 27.8509 191.75 28.6292 197.862 30.3044C199.003 30.6172 200.118 30.9495 201.201 31.2976C202.432 26.0319 208.054 23.1943 213.775 24.9581C219.507 26.7253 223.168 32.4423 221.952 37.7273C220.776 42.8384 215.469 45.6738 209.936 44.2565C206.602 44.182 202.43 43.5961 197.908 42.4971C197.995 44.1316 197.838 45.9095 197.395 47.8365C197.003 49.5381 196.384 51.2799 195.587 52.9966C194.864 51.6386 193.73 50.5483 192.418 50.1437C188.746 49.0117 185.549 51.0087 184.869 53.9655C184.005 57.7181 185.73 61.1573 189.11 62.4319Z" fill="#191847"/>
<path fill-rule="evenodd" clip-rule="evenodd" d="M143.433 193.53L220.927 325.842L279.025 437.7H291.539L194.195 193.53L143.433 193.53Z" fill="#BA8B72"/>
<path fill-rule="evenodd" clip-rule="evenodd" d="M271.374 432.536C270.207 435.717 269.623 438.097 269.623 439.676C269.623 441.597 269.937 444.4 270.563 448.085C272.745 448.085 292.352 448.085 329.385 448.085C330.913 442.924 330.031 440.138 326.737 439.726C323.444 439.315 320.708 438.943 318.53 438.611L291.191 426.164C290.664 425.924 290.048 426.166 289.813 426.703C289.809 426.712 289.805 426.722 289.802 426.731L288.044 431.084C284.996 432.537 282.518 433.264 280.612 433.264C279.063 433.264 276.925 432.625 274.196 431.347L274.196 431.347C273.149 430.857 271.911 431.327 271.431 432.396C271.41 432.442 271.391 432.489 271.374 432.536Z" fill="#E4E4E4"/>
<path fill-rule="evenodd" clip-rule="evenodd" d="M262.889 419.788L287.022 412.333C276.449 380.052 263.49 344.529 248.145 305.762C232.801 266.996 216.321 229.585 198.707 193.53H130.547C150.131 239.138 170.892 280.578 192.831 317.852C214.77 355.125 238.123 389.104 262.889 419.788Z" fill="#DB2721"/>
<path fill-rule="evenodd" clip-rule="evenodd" d="M138.34 193.53C131.026 240.025 116.92 299.428 115.588 301.261C114.701 302.484 82.7498 313.418 19.7351 334.064L22.4383 345.334C97.5831 334.261 137.178 325.67 141.223 319.562C147.29 310.399 177.586 238.011 189.32 193.53H138.34Z" fill="#D4A181"/>
<path fill-rule="evenodd" clip-rule="evenodd" d="M41.8858 324.322L46.6471 342.473C102.851 347.507 137.288 343.87 149.959 331.56C162.63 319.251 177.071 273.241 193.282 193.53H128.288C118.017 258.802 112.275 292.808 111.062 295.548C109.848 298.288 86.7898 307.88 41.8858 324.322Z" fill="#FF4133"/>
<path fill-rule="evenodd" clip-rule="evenodd" d="M23.9875 329.619C20.502 329.153 17.936 329.091 16.2895 329.433C14.2869 329.849 11.4101 330.766 7.65899 332.184C7.97503 334.344 10.8153 353.757 16.1799 390.421C21.7822 390.817 24.5593 389.34 24.5113 385.99C24.4633 382.641 24.4544 379.851 24.4846 377.623L33.5023 347.859C33.6758 347.287 33.3349 346.728 32.7407 346.613C32.7306 346.611 32.7203 346.609 32.7101 346.607L27.9163 345.81C25.96 343.106 24.8438 340.811 24.5676 338.924C24.3433 337.39 24.6995 335.134 25.6362 332.156L25.6362 332.156C25.9957 331.013 25.3268 329.889 24.1422 329.645C24.0911 329.635 24.0395 329.626 23.9875 329.619Z" fill="#E4E4E4"/>
<path fill-rule="evenodd" clip-rule="evenodd" d="M235.621 189.918L265.562 218.85C274.255 222.894 281.382 227.175 286.943 231.694C288.196 233.167 289.564 235.913 283.694 234.294C277.823 232.674 271.592 231.208 270.497 232.877C269.402 234.547 272.661 237.471 270.634 239.612C269.282 241.039 264.694 235.839 256.869 224.014L225.78 204.92L235.621 189.918ZM86.413 150.077L104.332 156.829C77.2278 190.881 62.7504 208.856 60.8998 210.754C56.7361 215.024 58.8381 224.669 59.4288 229.652C51.6093 229.839 55.9714 219.993 46.0582 220.365C37.0099 220.706 28.8922 224.402 21.5948 216.005C20.6977 214.973 20.3052 212.197 23.9175 211.486C32.9169 209.716 46.3871 205.768 48.758 203.701C51.9911 200.882 64.5428 183.007 86.413 150.077Z" fill="#D4A181"/>
<path fill-rule="evenodd" clip-rule="evenodd" d="M245.016 189.383C249.454 190.015 254.135 191.719 259.026 194.442C261.433 195.782 262.416 198.66 261.223 200.871C260.53 202.155 259.255 202.931 257.836 203.094C258.72 203.98 259.612 204.864 260.514 205.747L249.501 220.598C215.699 195.774 183.47 175.63 172.002 144.042C168.153 133.441 174.551 101.555 175.739 89.7138L187.832 87.688C199.305 122.354 216.601 156.945 245.016 189.383Z" fill="#69A1AC"/>
<path fill-rule="evenodd" clip-rule="evenodd" d="M121.489 192.445C154.894 203.14 181.586 208.784 201.567 209.378C204.042 209.451 205.353 199.591 204.62 196.668C193.221 151.145 186.169 118.094 190.352 89.0334C186.928 89.937 181.299 88.9907 173.465 86.1945C147.673 111.6 132.852 143.874 121.489 192.445Z" fill="#191847"/>
<path fill-rule="evenodd" clip-rule="evenodd" d="M114.562 199.253C113.553 197.981 113.172 196.313 113.697 194.788L114.698 191.885C115.376 189.917 117.354 188.797 119.468 189.003C120.054 187.545 120.587 186.086 121.065 184.628C125.097 172.305 123.168 158.98 125.119 146.707C105.666 157.065 86.5338 178.002 67.7242 209.519L48.074 199.513C49.2502 196.938 50.4496 194.404 51.6721 191.909C49.4922 190.143 47.5692 183.753 49.6964 183.201C51.8933 182.63 54.1692 182.383 56.5186 182.45C82.9876 133.047 119.313 100.497 165.493 84.801L169.264 85.5967L177.82 87.4023C167.654 131.94 203.512 241.426 173.919 322.223C140.768 322.215 97.8831 291.422 50.7427 298.845C57.3143 265.179 96.4038 232.249 114.562 199.253L114.562 199.253Z" fill="#89C5CC"/>
<path fill-rule="evenodd" clip-rule="evenodd" d="M170.399 83.0275L162.279 98.2108L172.002 112.885L160.177 120.364L179.487 165.752L154.551 119.275L166.202 111.678L157.565 98.7L170.399 83.0275Z" fill="black" fill-opacity="0.1"/>
<path fill-rule="evenodd" clip-rule="evenodd" d="M166.834 180.344C164.337 179.832 162.589 177.559 162.93 175.269C163.27 172.979 165.571 171.538 168.069 172.051C170.566 172.564 172.314 174.836 171.973 177.126C171.633 179.416 169.332 180.857 166.834 180.344ZM168.938 205.348C166.441 204.836 164.693 202.563 165.034 200.273C165.374 197.983 167.675 196.542 170.173 197.055C172.67 197.568 174.418 199.84 174.077 202.13C173.737 204.42 171.436 205.861 168.938 205.348ZM166.52 229.424C164.023 228.911 162.275 226.639 162.616 224.349C162.956 222.059 165.257 220.618 167.755 221.131C170.252 221.643 172 223.916 171.659 226.206C171.319 228.496 169.018 229.937 166.52 229.424Z" fill="black" fill-opacity="0.4"/>
</svg>
