<svg width="317" height="376" viewBox="0 0 317 376" fill="none" xmlns="http://www.w3.org/2000/svg">
<g filter="url(#filter0_d_490_650)">
<path fill-rule="evenodd" clip-rule="evenodd" d="M181.738 72.4901C186.346 67.0814 189.464 60.4529 188.943 53.0255C187.442 31.625 157.651 36.3328 151.857 47.1339C146.062 57.9351 146.75 85.333 154.24 87.2635C157.226 88.0333 163.589 86.1475 170.065 82.2443L166 111H190L181.738 72.4901Z" fill="#B28B67"/>
<path fill-rule="evenodd" clip-rule="evenodd" d="M165.536 34.6853C168.699 34.1665 177.216 33.8099 178.787 33.8101C179.79 33.8101 180.878 34.0395 181.473 33.1178C181.959 32.3631 181.781 31.0867 181.926 30.2109C182.095 29.1935 182.335 28.1892 182.577 27.1874C183.267 24.3369 184.31 21.625 185.769 19.0788C188.507 14.3019 192.519 10.5601 197.583 8.38278C203.176 5.97866 209.504 5.42817 215.52 5.91581C221.957 6.43752 227.784 8.56259 233.862 10.5624C239.654 12.4681 245.72 13.2182 251.778 12.2876C257.881 11.35 262.493 8.04203 267.641 4.90232C272.911 1.68801 278.934 -0.414264 285.165 0.0689985C290.98 0.520259 296.341 2.92161 301.15 6.12947C305.649 9.13081 309.362 12.7418 311.458 17.824C313.713 23.2909 313.711 29.2918 310.003 34.1233C304.628 41.1265 294.65 42.9376 286.349 42.7575C281.547 42.6537 276.832 41.7772 272.299 40.1828C266.253 38.0564 261.029 34.4523 255.373 31.528C252.719 30.1558 249.975 29.0288 247.099 28.217C244.309 27.4289 241.56 27.0675 239.034 28.7533C236.361 30.5367 233.966 32.2885 230.908 33.4049C227.974 34.476 224.867 35.075 221.742 35.0509C215.661 35.0039 209.667 33.1093 203.761 31.8402C198.946 30.8056 193.793 29.7743 188.883 30.769C186.834 31.1841 183.841 32.041 183.101 34.1702C195.556 36.4274 200.447 51.8302 196.936 63.1372C195.041 69.24 183.65 76.3742 179.221 73.1658C176.415 71.1333 178.119 68.4648 179.221 66.7033C181.332 63.3299 182.055 58.9967 178.148 56.648C174.778 54.6224 171.235 59.4327 171.168 59.4274C170.242 59.3544 162.24 54.8285 156.726 48.2241C151.287 48.5466 150.461 44.96 151.76 42.0269C153.059 39.0938 161.166 35.4024 165.536 34.6853Z" fill="#191847"/>
<path d="M200 368C157.474 368 123 335.093 123 294.5C123 253.907 157.474 221 200 221C242.526 221 277 253.907 277 294.5C277 335.093 242.526 368 200 368Z" fill="#C5CFD6"/>
<path fill-rule="evenodd" clip-rule="evenodd" d="M54.4908 356.66C67.3036 328.302 76.5696 303.608 80.289 290.58C86.6574 268.273 91.5022 248.643 92.7267 241.313C95.6466 223.832 70.2647 222.814 66.9098 231.502C61.8319 244.651 52.9671 287.853 42.3154 353.107L54.4908 356.66ZM203.112 267.664C191.356 263.017 150.188 248.475 130.333 244.361C124.627 243.179 119.097 242.081 113.898 241.088C98.444 238.138 90.4374 266.017 105.321 268.16C142.388 273.494 194.937 279.003 199.434 279.622C205.737 280.488 210.5 270.584 203.112 267.664Z" fill="#B28B67"/>
<path fill-rule="evenodd" clip-rule="evenodd" d="M104.413 233.416L168 201.047V194H160.438C98.9201 209.676 67.4846 219.722 66.1313 224.138C66.1168 224.185 66.1034 224.233 66.0913 224.281C66.0603 224.321 66.0299 224.362 66 224.403C53.8085 241.17 46.5071 323.027 44.1106 329.156L67.4723 332.641C76.4087 299.503 105 276.418 104.241 236.729C104.446 235.565 104.497 234.461 104.413 233.416Z" fill="#1F28CF"/>
<path fill-rule="evenodd" clip-rule="evenodd" d="M162.717 252.64C168.535 251.476 173.893 250.436 178.477 249.632C208.091 244.438 216.726 228.586 211.62 194H157.058C148.145 196.56 101.826 215.985 77.7934 226.316C61.8874 233.154 66.9015 257.804 75.909 264.219C75.958 264.613 76.1201 264.88 76.4087 265C124.863 285.083 163.195 274.545 176 277.912L181.923 259.228L162.717 252.64Z" fill="#2B44FF"/>
<path fill-rule="evenodd" clip-rule="evenodd" d="M199.092 264.694C202.267 264.997 204.521 265.474 205.853 266.124C207.474 266.915 209.707 268.338 212.553 270.395C211.636 272.275 203.395 289.173 187.829 321.088C182.831 320.282 180.851 318.375 181.888 315.367C182.925 312.359 183.761 309.849 184.397 307.835L185.385 279.15C185.404 278.598 185.867 278.166 186.419 278.185C186.428 278.185 186.438 278.186 186.447 278.186L190.86 278.463C193.367 276.434 195.021 274.598 195.823 272.955C196.473 271.62 196.833 269.514 196.902 266.637L196.902 266.637C196.929 265.533 197.845 264.659 198.95 264.685C198.997 264.686 199.045 264.689 199.092 264.694Z" fill="#E4E4E4"/>
<path fill-rule="evenodd" clip-rule="evenodd" d="M60.3219 351.402C61.4406 354.388 62 356.623 62 358.106C62 359.909 61.6996 362.54 61.0988 366C59.0068 366 40.2062 366 4.69695 366C3.23126 361.154 4.07734 358.539 7.23518 358.152C10.393 357.766 13.0163 357.417 15.105 357.106L41.32 345.419C41.8244 345.194 42.4157 345.421 42.6405 345.925C42.6444 345.934 42.6481 345.942 42.6517 345.951L44.3368 350.039C47.2601 351.403 49.6356 352.085 51.4633 352.085C52.9483 352.085 54.999 351.485 57.6155 350.285L57.6155 350.285C58.6196 349.825 59.8067 350.266 60.267 351.27C60.2869 351.313 60.3052 351.357 60.3219 351.402Z" fill="#E4E4E4"/>
<path fill-rule="evenodd" clip-rule="evenodd" d="M106 166.617L69.7654 150.704C63.418 144.379 57.2886 139.572 51.3773 136.282C49.6097 135.719 46.5899 135.549 49.8118 140.255C53.0338 144.961 56.2111 150.056 54.9237 151.705C53.6363 153.355 49.907 151.534 48.4337 154.216C47.4514 156.004 53.7377 158.143 67.2925 160.633L94.4301 181.439L106 166.617ZM252.492 171L232 175.066C252.608 213.471 263.66 233.826 265.155 236.13C268.52 241.315 265.38 250.817 264.221 255.821C271.496 257.515 268.627 246.565 277.833 248.851C286.236 250.938 293.361 256.293 301.196 249.071C302.159 248.183 302.865 245.407 299.58 243.984C291.397 240.437 279.308 233.796 277.348 231.218C274.674 227.702 266.389 207.629 252.492 171Z" fill="#B28B67"/>
<path fill-rule="evenodd" clip-rule="evenodd" d="M176.305 94.332L167.658 92.8489C148.824 111.119 141.138 155.012 128.586 160.822C116.719 166.316 99.8964 161 79.9002 153.823L73.7764 167.505C91.9449 187.161 130.651 203.767 146.34 194.287C171.424 179.13 177.214 124.994 176.305 94.332Z" fill="#DB2721"/>
<path fill-rule="evenodd" clip-rule="evenodd" d="M214 203C179.328 203 153.824 203 137.489 203C133.992 203 134.651 197.952 135.157 195.404C140.989 166.004 163.759 134.312 163.759 92.4607L185.828 89C204.083 118.358 210.395 154.505 214 203Z" fill="#DDE3E9"/>
<path fill-rule="evenodd" clip-rule="evenodd" d="M221.631 173.233C237.229 201.368 250.339 221.623 260.963 234L277 230.859C266.669 166.791 236.753 119.504 187.252 89H183.269L178.514 89C158.701 156.537 153.239 201.537 162.128 224H231C229.91 207.563 226.417 190.181 221.631 173.233H221.631Z" fill="#FF4133"/>
</g>
<defs>
<filter id="filter0_d_490_650" x="0" y="0" width="317" height="376" filterUnits="userSpaceOnUse" color-interpolation-filters="sRGB">
<feFlood flood-opacity="0" result="BackgroundImageFix"/>
<feColorMatrix in="SourceAlpha" type="matrix" values="0 0 0 0 0 0 0 0 0 0 0 0 0 0 0 0 0 0 127 0" result="hardAlpha"/>
<feOffset dy="4"/>
<feGaussianBlur stdDeviation="2"/>
<feComposite in2="hardAlpha" operator="out"/>
<feColorMatrix type="matrix" values="0 0 0 0 0 0 0 0 0 0 0 0 0 0 0 0 0 0 0.25 0"/>
<feBlend mode="normal" in2="BackgroundImageFix" result="effect1_dropShadow_490_650"/>
<feBlend mode="normal" in="SourceGraphic" in2="effect1_dropShadow_490_650" result="shape"/>
</filter>
</defs>
</svg>
