<svg width="110" height="238" viewBox="0 0 110 238" fill="none" xmlns="http://www.w3.org/2000/svg">
<path fill-rule="evenodd" clip-rule="evenodd" d="M21.258 0.173093C24.1225 -0.176879 27.1799 -0.05334 29.8439 1.07737C35.5085 3.48201 37.1187 10.1741 37.041 15.6135C36.9573 21.468 35.7141 27.8627 40.1651 32.5798C42.2112 34.7485 44.7563 36.4081 46.7654 38.6166C48.9122 40.9767 50.5966 43.677 51.8438 46.5768C54.1339 51.9032 55.2578 58.1669 53.1637 63.7543C51.3199 68.6736 46.6811 73.1138 47.6834 78.7076C48.729 84.5429 54.6122 89.0041 58.2904 93.3505C62.4532 98.2693 66.2859 104.556 66.9155 111.006C67.5193 117.188 64.8284 123.44 60.6988 128.113C52.4477 137.451 40.0452 142.028 27.5396 142C22.23 141.988 16.2186 141.748 11.6366 138.895C10.2204 138.013 9.47333 137.023 8.63148 135.648C7.87667 134.414 6.87958 133.612 5.72546 132.739C3.18987 130.822 1.35872 128.239 0.190122 125.347C-4.34778 114.114 -0.720833 100.218 5.6312 90.2428C7.13635 87.8796 8.36865 85.6055 7.63744 82.7886C6.8744 79.8482 4.99901 77.1961 3.34026 74.6685C1.70115 72.1705 -0.170121 69.7874 -1.45124 67.0865C-2.79301 64.2571 -3.17084 61.2943 -2.93376 58.1977C-2.4882 52.3811 0.0227325 47.0135 3.57766 42.3356C7.00172 37.8298 11.0221 33.5185 11.0311 27.6145C11.041 21.3571 6.85773 15.7908 8.63988 9.42898C9.3778 6.79466 10.86 4.09184 13.2486 2.51252C15.5393 0.997846 18.5639 0.502237 21.258 0.173093Z" fill="#DDE3E9"/>
<path fill-rule="evenodd" clip-rule="evenodd" d="M19.3862 10.1764C19.4399 9.33604 20.4367 8.83201 21.2215 9.0513C22.2545 9.3401 22.2346 10.3053 22.2073 11.1652C22.1237 13.8083 22.5063 16.377 23.1417 18.9415C24.4622 24.2735 26.9027 29.1861 28.8362 34.308C30.768 39.4255 31.6748 44.7092 30.5416 50.1243C29.4732 55.23 27.7948 60.2033 26.7015 65.3154C25.7378 69.8211 24.7123 74.5726 26.1799 79.0668C27.5921 83.3928 30.7142 86.9159 32.9625 90.8253C37.6165 98.9181 39.6813 107.896 39.9574 117.135C40.0854 121.425 39.9702 125.755 38.9749 129.963C38.402 132.386 37.6322 135.66 35.5559 137.333C34.5985 138.105 32.961 138.371 32.1552 137.229C31.3987 136.158 32.0624 134.499 32.3025 133.357C33.3427 128.413 33.5519 123.361 33.3029 118.342C33.0619 113.48 32.4874 108.626 30.9572 103.982C29.5369 99.6727 27.3792 95.8022 24.8398 92.0325C22.2521 88.1909 19.562 84.3411 18.4928 79.7892C17.4065 75.1661 18.289 70.462 19.4691 65.9272C20.7171 61.1306 22.3518 56.4717 24.0417 51.8051C25.6886 47.2579 26.2724 42.9554 25.3632 38.1962C23.5672 28.7935 18.7598 19.9681 19.3862 10.1764Z" fill="#C5CFD6"/>
<path fill-rule="evenodd" clip-rule="evenodd" d="M96.8923 11.5823C100.437 12.6586 103.958 14.3952 106.485 17.1183C111.858 22.909 110.209 31.6609 107.243 38.0532C104.05 44.9334 99.2123 51.8491 101.94 59.7432C103.193 63.3723 105.301 66.6591 106.49 70.3161C107.761 74.224 108.309 78.2938 108.239 82.372C108.11 89.8624 106.118 97.8548 100.708 103.373C95.9453 108.232 88.1575 111.07 86.3765 118.206C84.5185 125.651 89.0609 133.988 91.0778 141.041C93.3604 149.024 94.5329 158.453 91.8619 166.409C89.3026 174.034 82.8418 180.028 75.5282 183.406C60.9152 190.156 43.9487 189.117 29.2958 182.578C23.0748 179.801 16.1506 176.391 12.2845 170.633C11.0897 168.853 10.7364 167.294 10.476 165.23C10.2426 163.378 9.49716 161.911 8.60479 160.278C6.644 156.692 5.8618 152.684 6.01977 148.656C6.63449 133.011 18.2336 118.464 30.9562 109.972C33.9708 107.96 36.6181 105.912 37.2494 102.2C37.9086 98.3255 37.1108 94.2134 36.5012 90.3613C35.899 86.5544 34.9638 82.7626 34.8888 78.902C34.8105 74.8579 35.9334 71.1574 37.8482 67.6187C41.4453 60.9716 47.2275 55.9299 53.8696 52.2471C60.2673 48.6997 67.2616 45.6925 70.3928 38.715C73.7118 31.32 71.7474 22.5609 77.2003 15.9643C79.4582 13.2328 82.6252 10.8074 86.2616 10.1823C89.7489 9.58265 93.5584 10.57 96.8923 11.5823Z" fill="#DDE3E9"/>
<path fill-rule="evenodd" clip-rule="evenodd" d="M89.6513 23.8109C90.1542 22.8438 91.5838 22.7694 92.3866 23.4404C93.4432 24.3238 92.9145 25.4564 92.4322 26.4604C90.9502 29.5467 90.0523 32.7891 89.4521 36.1592C88.2037 43.1657 88.4845 50.2625 88.063 57.3413C87.6416 64.4142 85.9348 71.1467 81.7736 76.9654C77.8504 82.4518 73.2832 87.4617 69.3274 92.9426C65.8408 97.7733 62.1533 102.863 61.5156 108.954C60.9012 114.817 62.7069 120.626 63.2882 126.434C64.4919 138.457 62.2042 150.171 57.6884 161.257C55.5911 166.405 53.1887 171.472 49.8211 175.933C47.8824 178.503 45.2673 181.977 41.9634 182.869C40.4399 183.281 38.3855 182.739 38.0415 180.964C37.7181 179.298 39.3628 177.682 40.2417 176.455C44.047 171.146 46.9376 165.273 49.2753 159.198C51.5399 153.314 53.4103 147.265 54.0529 140.963C54.6491 135.116 54.1532 129.401 53.1581 123.606C52.1443 117.701 51.0149 111.731 52.1486 105.781C53.2996 99.7364 56.7953 94.6281 60.5501 89.8764C64.5215 84.8502 68.8729 80.1897 73.293 75.5491C77.6003 71.0273 80.5362 66.2381 81.9656 60.1256C84.7899 48.0493 83.7907 35.0782 89.6513 23.8109Z" fill="#C5CFD6"/>
<path fill-rule="evenodd" clip-rule="evenodd" d="M-12.694 56C-6.79973 56 -1.61767 59.1244 1.95309 63.5579C6.133 68.7481 6.97721 75.0862 8.67454 81.2719C9.51912 84.3503 10.9717 87.4062 13.5174 89.4977C15.8327 91.3998 18.7721 91.7804 21.5435 92.7097C27.0822 94.5669 31.5547 99.0406 33.321 104.499C35.4758 111.158 33.1934 117.873 33.5864 124.622C33.9472 130.819 40.0576 134.685 44.9738 137.656C49.8215 140.586 54.1886 143.328 55.6487 149.035C57.1969 155.088 57.7164 161.844 55.5719 167.823C52.0015 177.779 41.5525 182.163 31.4561 182.842C22.2932 183.459 10.7719 182.491 3.89066 175.84C-0.226959 171.86 -1.71814 166.293 -1.53314 160.755C-1.4182 157.311 -0.73601 153.899 0.146021 150.571C0.771116 148.213 1.6157 145.864 1.85632 143.427C2.49588 136.942 -3.4974 135.697 -8.59902 133.916C-15.0817 131.654 -19.6201 127.38 -22.776 121.425C-25.715 115.881 -26.9481 109.658 -25.1863 103.554C-24.2865 100.437 -22.6544 97.6097 -20.441 95.2046C-19.4666 94.146 -18.0934 93.2631 -17.2139 92.1509C-16.3931 91.1122 -16.5718 89.7664 -16.8547 88.5499C-18.1627 82.9306 -22.238 78.2776 -23.6955 72.6685C-25.0113 67.6054 -24.2335 61.3042 -19.6046 58.0379C-17.6047 56.6265 -15.1384 56.0156 -12.694 56Z" fill="#C5CFD6"/>
<path fill-rule="evenodd" clip-rule="evenodd" d="M-4.66231 70.6414C1.58501 77.296 3.2831 86.325 3.78146 95.0762C4.06062 99.9834 3.77006 105.159 5.2118 109.919C6.44538 113.993 9.33733 117.107 12.3183 120.051C18.3188 125.975 25.0108 131.999 26.7659 140.574C27.7957 145.606 27.1006 150.804 28.5236 155.78C29.8175 160.304 32.0956 164.748 34.8665 168.568C37.0975 171.645 40.0042 174 42.443 176.867C43.1871 177.743 44.2529 179.031 43.9458 180.267C43.5865 181.714 41.7431 182.172 40.4352 181.945C37.3859 181.415 34.8191 178.503 32.8253 176.386C29.9098 173.291 27.4323 169.962 25.4187 166.227C23.1832 162.08 21.3833 157.679 20.6142 153.026C19.8161 148.199 20.2133 143.168 18.3909 138.535C15.3242 130.74 7.88602 126.14 2.50817 120.064C-4.19227 112.494 -3.19298 103.072 -2.50668 93.759C-2.12969 88.6413 -1.75491 82.862 -4.34086 78.1895C-5.32801 76.4058 -7.52888 74.7428 -7.95331 72.7155C-8.34207 70.8579 -6.22028 68.9809 -4.66231 70.6414Z" fill="#AFB9C5"/>
<path fill-rule="evenodd" clip-rule="evenodd" d="M2 180C2.00038 218.058 8.21123 238 41.0001 238C73.789 238 79.9998 218.058 80 180H2Z" fill="#89C5CC"/>
</svg>
