<svg width="205" height="421" viewBox="0 0 205 421" fill="none" xmlns="http://www.w3.org/2000/svg">
<path fill-rule="evenodd" clip-rule="evenodd" d="M174.264 46.4472C180.651 42.5262 185.727 36.9548 187.043 29.4952C190.836 8.00188 157.214 3.60373 148.167 12.4663C139.12 21.3288 132.922 48.4717 140.585 52.6388C143.641 54.3006 151.045 54.3745 159.084 52.4994L147.367 79.537L173.492 86.8089L174.264 46.4472Z" fill="#B28B67"/>
<path fill-rule="evenodd" clip-rule="evenodd" d="M164.945 25.5063C160.641 37.8427 156.383 43.4376 152.172 42.2909C145.856 40.5707 141.472 35.4144 138.7 34.6596C136.68 34.1094 136.516 36.5632 137.4 38.6561C138.129 40.3828 143.147 43.2224 142.564 45.4329C141.982 47.6434 138.181 44.7756 137.836 46.0866C137.264 48.2552 135.442 52.129 139.524 53.2408C143.656 54.3659 155.868 56.2038 159.388 51.1033C161.66 47.8116 164.501 40.482 167.909 29.1143C168.167 29.1551 168.426 29.2105 168.684 29.2809C172.224 30.2449 174.397 33.6721 173.536 36.9357C173.099 38.5925 171.965 39.8886 170.491 40.6372C171.465 42.9711 172.596 45.4398 173.952 48.0389C182.15 46.0297 190.514 35.8898 186.453 22.8549C185.957 16.876 182.348 12.7716 177.535 10.0115C173.773 7.25608 169.473 5.89011 165.549 5.85892C158.205 4.46875 151.248 4.74174 149.111 5.44696C147.456 11.7258 148.284 13.9481 159.599 16.8534C162.013 18.9561 163.53 21.858 164.945 25.5063Z" fill="#191847"/>
<path fill-rule="evenodd" clip-rule="evenodd" d="M159.494 171.262L106.327 300.726L70.6684 410.178H56.5875L111.102 171.262L159.494 171.262Z" fill="#997659"/>
<path fill-rule="evenodd" clip-rule="evenodd" d="M170.2 171.262C170.766 216.756 179.022 278.008 180.341 280.844C181.221 282.734 211.579 306.777 271.417 352.971L261.719 362.956C191.116 323.35 154.181 300.906 150.914 295.624C146.013 287.7 130.058 214.786 117.248 171.262H170.2Z" fill="#B28B67"/>
<path fill-rule="evenodd" clip-rule="evenodd" d="M76.4335 405.227C77.6454 408.352 78.2513 410.69 78.2513 412.241C78.2513 414.128 77.9259 416.881 77.275 420.5C75.009 420.5 54.6437 420.5 16.1792 420.5C14.5916 415.431 15.5081 412.694 18.9287 412.29C22.3494 411.885 25.191 411.52 27.4535 411.195L55.8502 398.968C56.3966 398.733 57.0371 398.97 57.2807 399.498C57.2848 399.507 57.2889 399.516 57.2928 399.525L59.1181 403.801C62.2847 405.228 64.8579 405.942 66.8377 405.942C68.4462 405.942 70.6677 405.314 73.5019 404.059L73.5019 404.059C74.5896 403.578 75.8755 404.039 76.3741 405.09C76.3956 405.135 76.4154 405.181 76.4335 405.227Z" fill="#E4E4E4"/>
<path fill-rule="evenodd" clip-rule="evenodd" d="M123.747 398.904L56.7993 391.914L106.416 171.262H166.379L123.747 398.904Z" fill="#69A1AC"/>
<path fill-rule="evenodd" clip-rule="evenodd" d="M257.569 336.862L213.655 386.87C167.401 338.268 140.435 306.555 132.757 291.731C125.079 276.908 118.176 236.751 112.05 171.262H179.557C182.904 228.876 185.16 259.024 186.325 261.705C187.49 264.387 211.238 289.439 257.569 336.862Z" fill="#89C5CC"/>
<path fill-rule="evenodd" clip-rule="evenodd" d="M75.5133 147.945L37.262 165.067C27.575 165.71 19.3185 167.198 12.4927 169.529C10.807 170.507 8.59508 172.704 14.7745 173.373C20.9539 174.042 27.4311 175.004 27.9415 177.087C28.452 179.17 24.361 180.811 25.616 183.724C26.4526 185.666 32.5638 182.281 43.9496 173.57L80.101 166.665L75.5133 147.945ZM206.854 172.533L184.406 168.557C191.131 212.526 194.828 235.879 195.496 238.616C196.999 244.774 190.248 252.517 187.197 256.782C193.997 261.144 195.15 249.753 203.701 255.408C211.506 260.57 216.787 268.319 227.484 264.508C228.799 264.04 230.555 261.698 227.731 259.108C220.695 252.657 210.823 241.809 209.783 238.637C208.363 234.313 207.387 212.278 206.854 172.533Z" fill="#B28B67"/>
<path fill-rule="evenodd" clip-rule="evenodd" d="M160.168 71.3034L151.037 68.1047C111.412 89.7542 87.8936 140.884 40.3206 161.603L48.5665 175.305C124.093 180.211 153.687 118.009 160.168 71.3034Z" fill="#E87613"/>
<path fill-rule="evenodd" clip-rule="evenodd" d="M181.596 187.904C143.913 181.045 116.194 176 98.4395 172.768C94.6397 172.077 96.2301 167.088 97.2207 164.605C108.653 135.946 138.889 108.315 146.138 65.8778L170.724 66.7344C185.478 100.115 186.078 138.016 181.596 187.904Z" fill="#DDE3E9"/>
<path fill-rule="evenodd" clip-rule="evenodd" d="M194.88 101.111C198.534 100.81 201.675 99.1299 204.302 96.0709C215.625 82.8843 213.842 74.1667 204.901 69.7826C195.96 65.3985 186.636 69.3866 171.661 66.6648C170.847 66.5167 170.093 66.4287 169.399 66.4007L161.798 65.432C128.514 129.746 114.766 174.193 120.553 198.772L186.209 210.706C188.654 219.865 191.16 227.652 193.728 234.068L211.618 237.32C221.977 186.904 216.398 141.501 194.88 101.111Z" fill="#FF9B21"/>
<path fill-rule="evenodd" clip-rule="evenodd" d="M177.169 173.345C172.361 189.05 167.018 200.11 161.139 206.526L185.455 210.95C182.609 200.279 179.847 187.744 177.169 173.345Z" fill="black" fill-opacity="0.1"/>
</svg>
