<svg width="257" height="452" viewBox="0 0 257 452" fill="none" xmlns="http://www.w3.org/2000/svg">
<g clip-path="url(#clip0_21:176)">
<path fill-rule="evenodd" clip-rule="evenodd" d="M10.2007 16.1421C5.28502 13.7045 -1.26816 16.5315 1.46553 22.9754C4.39379 29.8758 15.2204 29.961 21.3348 29.8242C20.7228 29.7921 18.7521 23.4644 18.0774 22.5082C16.0878 19.6875 13.2228 17.6433 10.2007 16.1421ZM66.8387 139.859C68.0789 140.919 66.9396 139.958 66.8387 139.859V139.859ZM5.46528 47.3526C2.58864 49.5516 2.45143 53.4341 4.80128 56.0621C7.5994 59.1906 12.7087 59.0767 16.5226 58.7719C18.2479 58.6338 27.4597 57.8962 25.2762 56.3887C25.4442 56.4521 25.795 56.6061 26.1704 56.8154C26.3724 57.5535 26.5845 58.2891 26.8056 59.0214C26.7514 59.0531 26.7052 59.087 26.6473 59.1185C26.71 59.0911 26.7541 59.0614 26.8093 59.0335C29.0246 66.3526 32.1778 73.3217 36.3068 79.8415C34.762 79.2332 33.1619 78.7727 31.5391 78.5678C26.7333 77.96 16.6235 81.6946 21.9992 88.0933C27.1536 94.2275 35.1782 87.6465 41.028 86.7389C46.7022 94.6581 52.9582 102.247 59.5145 109.583C59.1127 109.709 58.7602 109.971 58.5581 110.379C55.9279 109.045 53.1871 107.136 50.7529 106.619C47.2403 105.874 40.0376 105.423 37.3827 108.567C34.1174 112.433 37.6176 115.573 41.4754 116.315C47.0694 117.39 54.3922 114.657 59.7748 112.81C60.3905 112.919 61.0627 112.739 61.4642 112.247C61.5832 112.208 61.7021 112.169 61.8178 112.132C68.4572 119.432 75.3506 126.491 82.202 133.395C82.1291 133.391 82.0562 133.387 81.9801 133.383C80.1929 132.211 78.2759 131.249 76.1979 130.745C71.3911 129.574 65.7354 129.568 61.8346 133.046C57.9489 136.509 56.5724 142.566 60.5923 146.455C68.6386 154.239 80.4938 136.49 84.5525 135.749C91.5151 142.692 98.8773 149.179 106.355 155.534C105.506 155.276 104.635 155.086 103.735 155C96.4021 154.298 79.1906 163.288 88.1897 172.133C96.0319 179.84 105.109 165.005 111.428 159.817C118.475 165.741 125.56 171.624 132.446 177.737C128.69 176.74 125.061 176.593 121.035 177.809C116.869 179.07 110.146 182.216 112.78 187.84C115.459 193.56 123.531 190.957 127.735 189.141C130.029 188.151 134.626 184.808 138.663 183.4C149.651 193.774 159.169 205.2 166.375 218.661C170.873 227.065 174.287 236.044 176.69 245.273C178.223 251.163 181.245 261.056 180.64 268.723C183.524 253.377 178.31 234.946 172.693 221.229C167.529 208.616 159.8 197.543 150.747 187.576C153.019 180.743 172.14 170.888 160.709 164.54C154.639 161.184 148.422 166.753 147.095 172.652C146.183 176.705 147.572 181.798 149.046 185.733C146.198 182.694 143.237 179.754 140.187 176.911C135.971 172.982 131.654 169.166 127.295 165.399C134.477 158.652 141.274 139.364 131.645 136.21C117.425 131.565 124.272 157.874 125.264 162.806C125.546 162.822 125.765 162.737 125.927 162.555C125.847 163.006 125.754 163.489 125.641 163.976C117.3 156.803 108.835 149.772 100.648 142.428C101.386 141.883 102.558 139.8 103.48 138.691C105.56 136.192 107.549 133.581 109.004 130.657C111.301 126.037 113.516 118.666 107.427 115.949C100.805 112.987 97.6576 121.323 97.6114 126.296C97.58 129.735 98.5166 133.002 99.0045 136.373C99.1569 137.424 98.5697 142.163 100.002 140.125C99.9344 140.876 99.9247 141.421 99.9582 141.807C98.4885 140.482 97.0301 139.142 95.581 137.793C95.648 137.623 95.6978 137.437 95.7091 137.222C95.7868 135.739 94.295 135.168 93.2489 135.602C91.3367 133.785 89.4432 131.945 87.5835 130.069C83.6419 126.093 79.6431 122.004 75.6721 117.828C76.5336 117.087 76.191 116.062 76.9967 115.277C77.8011 114.493 79.3855 114.059 80.3315 113.331C82.7107 111.498 84.6836 108.828 86.1104 106.2C88.4661 101.858 91.5104 92.7501 84.6288 90.6806C77.5356 88.5442 73.9352 97.312 73.4791 102.794C73.3904 103.856 74.1855 113.424 74.7942 116.899C67.4463 109.137 60.2193 101.085 53.6717 92.8921C55.6569 92.8737 61.2854 88.8063 62.4232 87.6964C65.1996 84.9893 69.613 79.0075 64.7456 75.8421C60.4178 73.0345 55.0832 77.101 53.2324 81.0531C52.9283 81.7039 51.8556 87.7609 51.772 90.4785C49.062 87.0043 46.4769 83.5096 44.0718 80.0036C42.4678 77.6728 40.969 75.2803 39.5666 72.8369C39.9042 72.6456 40.2218 72.3119 40.5217 71.897C47.7398 70.672 56.9424 59.4099 48.4641 55.4915C44.4274 53.6283 40.0498 57.4743 38.0723 60.6232C37.6672 61.2674 37.0111 64.5062 36.4771 67.0609C32.4425 58.9665 29.3594 50.3972 27.0128 41.6109C27.6412 41.4549 28.1733 40.9749 28.2435 40.1493C31.7479 38.1515 34.5153 36.4879 36.9616 32.6461C38.4814 30.2598 41.2184 24.808 36.7528 23.4835C30.9415 21.7602 27.291 30.6364 26.8156 35.0084C26.7602 35.5159 26.7622 36.9919 26.7814 38.3444C26.5796 38.3169 26.3757 38.32 26.1757 38.3554C24.841 32.9149 23.7756 27.4043 22.9283 21.8845C26.1002 20.8636 26.6487 4.20556 24.5368 1.83364C19.8162 -3.47736 16.4859 4.19463 16.7379 8.24943C17.0356 13.0304 19.2021 17.3796 21.7818 21.2393C22.0586 21.6481 21.9796 21.6282 22.0513 21.0588C22.091 21.3403 22.1851 21.548 22.3248 21.6984C22.1917 24.2151 21.9322 26.7917 22.0568 29.0186C22.414 35.3961 23.1569 41.8106 24.2355 48.106C24.4979 49.637 24.7983 51.1557 25.1352 52.6611C22.5858 50.4892 19.1484 48.5594 17.8034 47.9559C14.3125 46.3913 8.93265 44.7019 5.46528 47.3526ZM181.05 268.745C180.888 270.968 180.486 273.005 179.737 274.684C180.299 272.772 180.73 270.785 181.05 268.745Z" fill="#F2F2F2"/>
<g opacity="0.7">
<path opacity="0.7" fill-rule="evenodd" clip-rule="evenodd" d="M105.822 166.77C119.474 166.062 136.359 174.031 137.815 188.871C138.873 199.653 138.545 210.405 140.183 221.172C141.492 229.776 144.261 238.036 148.038 245.874C151.67 253.411 159.203 259.827 161.162 267.879C162.411 273.01 161.712 280.227 159.99 285.245C157.896 291.347 159.009 290.865 163.182 295.985C171.359 306.018 178.723 316.307 183.93 328.29C191.43 345.55 196.348 365.725 193.564 384.618C193.21 387.017 192.79 395.627 189.486 396.229C185.796 396.902 187.522 391.978 187.719 390.387C188.974 380.238 190.089 371.367 188.575 361.059C182.732 321.288 154.201 295.085 135.623 261.331C134.602 259.59 132.446 255.445 130.947 252.711C128.58 248.393 126.201 240.179 122.997 236.977C116.963 230.947 122.511 243.071 123.686 245.385C125.173 248.313 126.808 251.425 128.332 253.99C135.302 265.882 143.082 278.862 150.28 291.121C119.147 298.214 97.2208 260.785 88.866 236.178C81.9824 215.905 73.7463 168.505 105.822 166.77Z" fill="#69A1AC"/>
<path opacity="0.7" fill-rule="evenodd" clip-rule="evenodd" d="M288.805 129.121C265.983 130.932 251.331 145.992 244.511 167.056C240.835 178.407 240.413 190.068 238.37 201.734C235.297 219.284 228.686 232.585 215.764 245.089C211.762 248.961 208.812 252.937 206.716 257.191C202.554 261.438 198.931 266.244 196.269 272.12C192.869 279.624 191.907 288.628 195.832 296.109C196.888 298.121 199.521 302.158 202.25 303.992C192.033 325.752 186.415 349.584 187.048 373.386C187.431 387.753 188.132 402.127 188.951 416.477C189.171 420.33 190.426 426.693 192.31 420.231C194.035 414.32 191.872 405.041 191.672 398.867C190.698 368.786 189.866 341.435 202.248 313.331C203.547 310.385 204.924 307.463 206.357 304.565C206.442 304.516 206.52 304.457 206.599 304.4C206.653 304.442 206.703 304.487 206.758 304.529C206.849 304.365 206.975 304.171 207.121 303.954C207.532 303.529 207.891 302.993 208.233 302.395C209.331 300.873 210.574 299.084 210.581 298.105C210.581 298.098 210.577 298.086 210.577 298.078C218.242 285.565 227.022 273.742 235.99 262.149C235.923 262.234 245.718 248.897 244.204 256.272C243.474 259.827 236.269 266.595 233.359 270.36C226.922 278.735 219.363 289.348 213.082 299.61C212.237 300.096 211.043 302.48 210.179 304.257C209.702 305.157 209.257 306.064 208.82 306.855C231.077 314.208 248.39 299.396 260.196 282.168C260.21 282.147 260.223 282.126 260.236 282.106C263.829 277.346 267.509 272.619 272.107 268.856C279.777 262.576 287.992 261.468 297.036 258.378C321.7 249.951 332.186 217.987 335.516 194.27C339.274 167.513 320.894 126.483 288.805 129.121Z" fill="#89C5CC"/>
<path opacity="0.7" fill-rule="evenodd" clip-rule="evenodd" d="M243.723 54.1905C220.299 78.5694 208.982 112.383 200.022 144.172C190.014 179.676 183.403 215.728 183.149 252.642C182.983 276.895 182.323 301.299 183.739 325.523C184.241 334.126 185.099 342.745 186.462 351.255C186.575 351.955 189.626 370.958 192.545 366.53C194.205 364.012 189.417 346.817 189.056 343.953C187.021 327.822 186.548 311.573 186.647 295.326C186.81 268.575 186.021 241.962 188.733 215.31C189.137 211.33 189.457 207.151 190.402 203.258C191.406 199.119 190.127 200.926 193.396 199.287C196.573 197.695 200.498 197.922 203.794 195.924C216.866 187.997 223.553 167.635 228.758 154.275C234.711 138.998 238.329 122.706 241.219 106.628C243.341 94.8158 244.858 83.0749 245.716 71.1101C245.987 67.3393 246.003 63.3959 246.744 59.6881C246.944 58.688 247.945 56.9187 247.909 56.0329C247.832 54.1584 246.701 53.0559 246.608 51.4807C245.627 52.3632 244.665 53.2671 243.723 54.1905Z" fill="#89C5CC"/>
<path opacity="0.7" fill-rule="evenodd" clip-rule="evenodd" d="M116 379C116 419.317 148.683 452 189 452C229.317 452 262 419.317 262 379" fill="#89C5CC"/>
<path opacity="0.7" fill-rule="evenodd" clip-rule="evenodd" d="M194.857 379.232H191C191.268 374.393 191.621 369.562 192.43 364.776C195.525 346.473 205.2 319.591 226.42 316.62C227.203 316.51 230.083 316.491 233.571 316.696C235.224 315.772 237.076 315.213 239.028 315.085C257.095 313.753 277.271 328.329 285.986 343.497C293.012 355.726 291.828 371.785 287.489 384.778C284.583 393.476 278.241 405.878 267.665 405.999C254.433 406.15 253.795 389.796 253.539 380.236C253.199 367.525 251.593 356.453 241.577 347.789C239.243 345.771 236.692 343.995 234.334 342.005C230.642 338.89 226.562 335.7 226.086 330.546C225.43 323.436 229.443 322.156 235.571 323.477C236.616 323.702 247.139 328.424 245.581 324.692C245.105 323.552 243.368 322.648 241.175 321.971C235.501 321.354 228.733 320.638 226.787 321.066C205.792 325.672 197.617 354.755 195.446 373.233C195.212 375.227 195.023 377.228 194.857 379.232Z" fill="#69A1AC"/>
</g>
</g>
<defs>
<clipPath id="clip0_21:176">
<rect width="336" height="452" fill="white"/>
</clipPath>
</defs>
</svg>
