<svg width="336" height="470" viewBox="0 0 336 470" fill="none" xmlns="http://www.w3.org/2000/svg">
<path fill-rule="evenodd" clip-rule="evenodd" d="M157.257 78.9405C152.266 73.0816 148.887 65.9014 149.452 57.8559C151.078 34.6744 183.348 39.774 189.625 51.474C195.902 63.1741 195.156 92.8522 187.043 94.9433C183.808 95.7772 176.916 93.7344 169.902 89.5064L174.304 120.655H148.307L157.257 78.9405Z" fill="#B28B67"/>
<path fill-rule="evenodd" clip-rule="evenodd" d="M174.807 37.9893C171.381 37.4274 162.155 37.0411 160.454 37.0414C159.366 37.0414 158.188 37.2898 157.544 36.2914C157.017 35.4739 157.21 34.0913 157.053 33.1426C156.87 32.0405 156.61 30.9526 156.348 29.8675C155.601 26.7797 154.471 23.8421 152.89 21.084C149.924 15.9096 145.579 11.8564 140.093 9.49786C134.035 6.89367 127.18 6.29736 120.664 6.82558C113.691 7.39071 107.378 9.69263 100.795 11.8589C94.5207 13.9231 87.9494 14.7357 81.3876 13.7276C74.7762 12.7121 69.7807 9.12875 64.2042 5.72774C58.4954 2.24592 51.9713 -0.0313082 45.2225 0.492174C38.9227 0.980989 33.1164 3.58219 27.9071 7.05702C23.0332 10.3081 19.0116 14.2197 16.7411 19.7248C14.2986 25.6467 14.3008 32.147 18.3174 37.3806C24.1394 44.9667 34.9476 46.9284 43.9396 46.7334C49.1407 46.6209 54.2488 45.6715 59.1592 43.9444C65.7079 41.641 71.367 37.7369 77.4935 34.5694C80.3687 33.083 83.3405 31.8622 86.4556 30.9828C89.4785 30.1291 92.4558 29.7376 95.1928 31.5636C98.0881 33.4955 100.683 35.3931 103.995 36.6024C107.172 37.7626 110.538 38.4116 113.923 38.3854C120.51 38.3345 127.003 36.2822 133.4 34.9075C138.617 33.7868 144.199 32.6697 149.517 33.7471C151.737 34.1968 154.978 35.125 155.78 37.4314C142.289 39.8765 136.99 56.5611 140.794 68.8092C142.846 75.4199 155.185 83.1478 159.983 79.6724C163.022 77.4707 161.177 74.5802 159.983 72.6721C157.696 69.0179 156.914 64.324 161.145 61.7799C164.795 59.5858 168.633 64.7964 168.706 64.7906C169.709 64.7116 178.378 59.809 184.35 52.655C190.242 53.0042 191.136 49.1192 189.729 45.942C188.323 42.7648 179.541 38.7662 174.807 37.9893Z" fill="#191847"/>
<path fill-rule="evenodd" clip-rule="evenodd" d="M141.819 210.588L222.31 345.153L282.654 458.917H295.652L194.544 210.588L141.819 210.588Z" fill="#997659"/>
<path fill-rule="evenodd" clip-rule="evenodd" d="M274.707 453.665C273.495 456.9 272.889 459.321 272.889 460.927C272.889 462.88 273.215 465.731 273.865 469.478C276.131 469.478 296.497 469.478 334.961 469.478C336.549 464.229 335.632 461.396 332.212 460.977C328.791 460.559 325.95 460.181 323.687 459.844L295.29 447.184C294.744 446.941 294.103 447.186 293.86 447.732C293.856 447.742 293.852 447.751 293.848 447.761L292.022 452.188C288.856 453.666 286.283 454.405 284.303 454.405C282.694 454.405 280.473 453.755 277.639 452.456L277.639 452.456C276.551 451.957 275.265 452.435 274.766 453.522C274.745 453.569 274.725 453.617 274.707 453.665Z" fill="#E4E4E4"/>
<path fill-rule="evenodd" clip-rule="evenodd" d="M265.895 440.7L290.961 433.117C279.979 400.287 266.519 364.158 250.581 324.732C234.643 285.305 217.526 247.257 199.23 210.588H128.435C148.776 256.972 170.34 299.119 193.127 337.027C215.914 374.935 240.17 409.493 265.895 440.7Z" fill="#DB2721"/>
<path fill-rule="evenodd" clip-rule="evenodd" d="M136.529 210.588C128.933 257.875 114.28 318.29 112.898 320.154C111.976 321.397 78.7892 332.518 13.3378 353.516L16.1455 364.977C94.1961 353.716 135.322 344.979 139.524 338.766C145.826 329.447 177.293 255.826 189.481 210.588H136.529Z" fill="#B28B67"/>
<path fill-rule="evenodd" clip-rule="evenodd" d="M36.3451 343.608L41.2905 362.068C99.6678 367.188 135.437 363.488 148.598 350.969C161.758 338.45 176.758 291.656 193.596 210.588H126.089C115.42 276.972 109.456 311.557 108.196 314.344C106.936 317.131 82.9855 326.885 36.3451 343.608Z" fill="#FF4133"/>
<path fill-rule="evenodd" clip-rule="evenodd" d="M16.5431 348.741C13.1468 348.109 10.6578 347.933 9.07611 348.212C7.15242 348.551 4.40179 349.366 0.824219 350.658C1.21771 352.889 4.7541 372.945 11.4334 410.825C16.8781 411.478 19.5095 410.083 19.3277 406.642C19.1459 403.2 19.0246 400.336 18.9638 398.05L26.4999 367.886C26.6449 367.305 26.2919 366.717 25.7115 366.572C25.7016 366.57 25.6916 366.568 25.6816 366.565L21.0041 365.537C18.9992 362.675 17.8249 360.269 17.4811 358.319C17.2018 356.735 17.4558 354.435 18.2432 351.418L18.2432 351.418C18.5453 350.26 17.8518 349.077 16.6941 348.774C16.6442 348.761 16.5938 348.75 16.5431 348.741Z" fill="#E4E4E4"/>
<path fill-rule="evenodd" clip-rule="evenodd" d="M235.021 193.375L265.707 223.31C274.635 227.118 281.951 231.323 287.653 235.926C288.936 237.472 290.332 240.436 284.298 239.11C278.264 237.784 271.858 236.66 270.724 238.622C269.59 240.584 272.931 243.591 270.836 246.159C269.438 247.871 264.739 242.426 256.738 229.822L224.83 211.01L235.021 193.375ZM98.8207 197.597L121.457 197.686C107.48 242.806 99.9347 266.746 98.8207 269.507C96.3141 275.719 101.618 285.179 103.887 290.263C96.4989 293.569 97.2861 281.327 87.9667 285.662C79.4605 289.62 72.9898 296.79 63.1621 290.726C61.9539 289.981 60.6298 287.174 63.8289 284.98C71.799 279.515 83.2844 269.95 84.8362 266.802C86.9525 262.509 91.6139 239.44 98.8207 197.597Z" fill="#B28B67"/>
<path fill-rule="evenodd" clip-rule="evenodd" d="M163.15 102.611L172.517 101.004C188.643 141.29 216.799 177.894 256.983 210.817L226.618 247.708C186.438 200.83 161.672 152.464 163.15 102.611Z" fill="#191847"/>
<path fill-rule="evenodd" clip-rule="evenodd" d="M122.318 220.323H205.726C186.402 173.338 176.741 133.425 176.741 100.584L151.58 96.8352C131.807 128.637 126.223 167.791 122.318 220.323Z" fill="#DDE3E9"/>
<path fill-rule="evenodd" clip-rule="evenodd" d="M151.048 96.853C151.051 96.8471 151.054 96.8411 151.058 96.8352H152.7C154.665 96.9029 157.659 97.0248 161.68 97.201L167.759 114.575C168.403 135.758 172.158 178.448 179.026 242.644H124.35C124.494 247.077 124.73 251.553 125.059 256.069H84.4052C90.4863 187.462 112.694 134.384 151.028 96.8352L151.048 96.853V96.853Z" fill="#2F3676"/>
<path fill-rule="evenodd" clip-rule="evenodd" d="M127.962 185.912C129.518 213.55 133.414 232.603 139.65 243.07H124.364C123.695 223.186 124.894 204.133 127.962 185.912V185.912Z" fill="black" fill-opacity="0.1"/>
<path fill-rule="evenodd" clip-rule="evenodd" d="M136.52 209.491L163.481 196.957V209.491H136.52Z" fill="white" fill-opacity="0.2"/>
</svg>
